<svg xmlns="http://www.w3.org/2000/svg" viewBox="0 0 1280 800" role="img" aria-label="기아 쏘렌토 상세 이미지">
  <defs>
    <linearGradient id="bg" x1="0" y1="0" x2="1" y2="1">
      <stop offset="0" stop-color="#f4f9ff"/>
      <stop offset="1" stop-color="#ffffff"/>
    </linearGradient>
  </defs>
  <rect width="1280" height="800" fill="url(#bg)"/>
  <circle cx="1080" cy="140" r="170" fill="#1d6fd8" opacity="0.12"/>
  <circle cx="180" cy="650" r="210" fill="#1d6fd8" opacity="0.08"/>
  <g transform="translate(215 300)" fill="none" stroke="#1d6fd8" stroke-width="28" stroke-linecap="round" stroke-linejoin="round">
    <path d="M80 210h740c44 0 82-28 94-70l26-92c8-29-14-58-44-58H260c-36 0-70 17-92 46L80 150z" fill="#ffffff" opacity="0.78"/>
    <path d="M230 210a74 74 0 1 0 148 0a74 74 0 0 0-148 0" fill="#f7fbff"/>
    <path d="M660 210a74 74 0 1 0 148 0a74 74 0 0 0-148 0" fill="#f7fbff"/>
    <path d="M240 110h480"/>
    <path d="M360 110l46-86h210l80 86"/>
  </g>
  <text x="640" y="690" text-anchor="middle" font-family="Pretendard, Arial, sans-serif" font-size="42" font-weight="800" fill="#0f3f86">기아 쏘렌토 상세 이미지</text>
</svg>