<?xml version="1.0" encoding="UTF-8"?>
<svg id="_레이어_1" data-name="레이어_1" xmlns="http://www.w3.org/2000/svg" version="1.1" viewBox="0 0 368 254">
  <!-- Generator: Adobe Illustrator 29.8.4, SVG Export Plug-In . SVG Version: 2.1.1 Build 6)  -->
  <defs>
    <style>
      .st0 {
        fill: #0436a7;
      }
    </style>
  </defs>
  <path class="st0" d="M268.92,62.26c24.13,3.17,17.04,47.09,8.96,61.06,8.02.14,16.16-.77,23.9,2.09-41.15,4.59-92.97,25.76-120.47,19.85-4.45-.96-26.24,3.9-49.85,4.82-22.15.86-46.33-2.25-46.59-2.29-11.3-1.78-35.46-4.8-45.11-12.5-1.48-1.18-1.93-3.24-1.06-4.92.95-1.85,2.77-3.69,3.02-6.47,0-.03-1.33-15.02-1.33-15.02l1.39-9.08c7.99-20.46,28.04-28.91,48.65-30.85,10.9-1.03,21.35-4.86,30.48-10.91,22.67-15.02,45.28-20.96,74.98-19.41,1.46.08,2.91.12,4.37.11,22.83-.05,42.15,4.01,58.24,20.45,2.04,2.08,4.87,3.2,7.78,3.08,1.04-.04,1.99-.07,2.64-.01ZM46.17,114.59v10.11c0,.59.82.73,1.02.18,1.19-3.29,2.05-9.66,4.42-11.48,2.38-1.83,7.62-1.42,10.65-1.3,8.51.34,17.12,1.31,25.64,1.82,22.74-.59,28.37,2.35,45.93,16.39.8,7.25-32.16,5.65-37.64,5.67-13.21.12-26.29-2.62-39.24-4.13-2.59-.3-3.23,3.5-.68,4.07,38.98,8.62,82.5,8.84,120.86-2.37,5.54-1.62,9.45-6.55,9.86-12.31,3.62-51.42,36.77-52.82,32.99-1.51-.16,2.22,1.91,3.96,4.07,3.4,12.74-3.35,26.06-10.12,38.54-13.54.63-.58-.09-.62-.55-.71-3.79-.71-10.08-2.26-13.68-1.17-.24.07-.46.17-.69.28-2.9,1.43-22.42,11.25-22.45,11.25l-.59-.51.9-2.58c.62-1.79,1.79-3.35,3.33-4.45,20.68-14.75,17.57-12.77,28.22-36.87l-.35-.65c-.63-.09-16.1.3-16.17-.38h0c-.03-.49.25-.95.7-1.15,2.18-.98,7.21-2.89,10.93-4.78,2.81-1.43,3.39-5.17,1.19-7.42-6.92-7.04-17.11-13.84-26.44-14.42-5.58-.2-6.49,5.61-8.08,9.9-1.49,4.04-2.74,8.23-3.94,12.37,2.69,1.25,6.04-.22,8.1-2.06.3-3.8,3.11-6.81,7.22-6.88,1.67-.13,11.52.07,12.39.82,1.17,1.01.21,5.29-.69,6.54-2.33,3.27-11.34,1.68-14.77,2.57-1.59.87-2.2,1.08-2.07,1.47.33,1.01-.69,1.96-1.73,1.8-37.77-6.02-74.94,6.44-107.77,24.75-.95.53-1.81-.81-.95-1.46,26.61-20.06,60.48-31.86,93.89-28.26.58-.01,8.75-21.89,9.04-22.15h0c-.22-.36-.6-.6-1.02-.64-22-2.07-45.32-2.58-66.78,3.11-10.63,2.55-17.97,9.79-25.97,16.8l.24.73c.06.01,10.75,1.2,10.81,1.22l-.07.83c-22.37,2.49-70.32-.21-78.35,25.83-.58,2.78-.62,9.16-1.89,11.12-2.54,2.65-4.81,2.44-6.77,5.08-1.08,1.46-1.62,3.26-1.62,5.09ZM267.67,103.81c-.31,11.46,6.44,28,12.17,8.02,2.56-8.96,4.06-22.5.83-31.34-4.23-11.61-10.1-5.26-12.55,3-2.35,7.92-2.82,16.81-2.81,25.01,1.06-1.03,1.26-2.47,1.62-3.81.16-.58-.39-1.07.74-.88ZM203.97,90.52c-13.51,5.54-14.21,44.74-.92,50.61,16.43,1.04,18.7-52.11.92-50.61ZM184.49,81.49c1.49-.14,1.76.28,1.35,1.73-.91,3.18-7.87,14.19-10.5,16.24-4,3.12-14,4.24-19.2,5.01-9.65,1.42-20.54,2.59-30.28,2.97-2.45.09-6.36.26-8.69,0h0c-.27-.98-.29-1.04-.56-2.02,8.08-6.13,18.19-10.06,27.66-13.53,12.27-4.5,27.23-9.14,40.23-10.38ZM173.32,89.1c-1.63,1.99-3.04,4.34-5.4,5.62l-.29.11c-11.75,2.76-24.41,3.94-35.9,7.64-.38.12-.27.09-.18.61,6.54-.61,12.29-1.05,18.82-1.85,4.79-.59,18.45-2.03,21.89-4.49.4-.29,2.33-2.68,4.2-5.16l-3.13-2.48ZM139.62,118.36l6.27,1.21c.18.03.35.09.51.18,4.99,2.73,10.77,10.69,16.29,11.16,3.68.32,9.74,0,13.37-.75.38-.08.77-.13.9-.57.22-.75-4.87-10.17-5.7-11.59-.36-.61-1.07-1.85-1.89-3.13-1.64-2.58-4.65-3.95-7.67-3.48l-22.02,3.46c-1.97.31-2.01,3.12-.06,3.5ZM199.49,104.1c-1.61,7.43-1.74,16.15.06,23.56,1.49,6.12,5.49,13.34,10.25,4.46,4.61-8.6,5.54-24.57,1.92-33.62-1.08-2.7-2.92-5.79-6.3-5.09-3.48.72-5.27,7.66-5.93,10.69ZM270.54,105.08c.13,2.13,2.11,16.76,6,9.94,3.82-6.7,4.41-23.93,1.79-31.1-2.38-6.53-6.27-2.72-7.42,1.99.74.75,1.97-1.86,2.53-1.26-2.23,6.29-3.32,13.74-2.9,20.43Z"/>
  <g>
    <path class="st0" d="M122.21,160.36h-19.13l-1.56,6.31h18.91c-.9,2.72-1.92,5.24-3.08,7.54l-21.06,1.17-.66,6.71,17.71-1.55c-1.85,2.36-4.06,4.59-6.61,6.69-4.17,3.43-9.6,6.55-16.29,9.39l3.01,5.94c7.85-3.38,14.23-7.21,19.13-11.46,4.9-4.26,8.67-8.85,11.3-13.79,2.63-4.93,4.73-10.58,6.3-16.94h-7.98Z"/>
    <polygon class="st0" points="147.21 154.94 138.97 154.94 125.17 210.92 133.41 210.92 140.31 182.94 148.58 182.94 150.17 176.48 141.9 176.48 147.21 154.94"/>
    <polygon class="st0" points="165.48 192.08 157.27 192.08 154.41 203.72 154.07 205.07 152.84 210.06 192.96 210.06 194.52 203.72 162.62 203.72 165.48 192.08"/>
    <polygon class="st0" points="204.43 155.06 196.22 155.06 186.04 196.33 194.25 196.33 198.95 177.28 206.87 177.28 208.45 170.85 200.53 170.85 204.43 155.06"/>
    <path class="st0" d="M187.09,159.03h-8.24l-2,8.12h-12.01l2-8.12h-8.15l-6.99,28.34h28.4l6.99-28.34ZM173.39,181.19h-12.01l1.98-8.03h12.01l-1.98,8.03Z"/>
    <polygon class="st0" points="235.89 155.83 227.71 155.83 225.86 163.34 212.59 163.34 211.04 169.65 245.46 169.65 247.01 163.34 234.04 163.34 235.89 155.83"/>
    <polygon class="st0" points="261.19 154.94 253.07 154.94 239.13 210.06 247.24 210.06 254.18 183.37 262.87 183.37 264.46 176.94 255.76 176.94 261.19 154.94"/>
    <path class="st0" d="M234.9,174.47c-2-1.14-4.42-1.71-7.27-1.71s-5.56.57-8.12,1.71c-2.56,1.14-4.73,2.72-6.52,4.76-1.79,2.03-3,4.33-3.63,6.89s-.55,4.86.23,6.89c.79,2.03,2.18,3.62,4.17,4.75,1.99,1.14,4.42,1.71,7.27,1.71s5.56-.57,8.12-1.71c2.56-1.14,4.73-2.72,6.53-4.75,1.8-2.03,3.02-4.33,3.65-6.89.63-2.56.55-4.86-.25-6.89-.8-2.03-2.19-3.62-4.19-4.76ZM229.62,189.81c-.85,1.05-1.88,1.85-3.09,2.42-1.21.56-2.52.85-3.91.85s-2.5-.28-3.45-.85-1.59-1.37-1.95-2.42c-.35-1.05-.36-2.27-.01-3.66s.96-2.65,1.83-3.71c.87-1.06,1.92-1.87,3.14-2.43,1.22-.56,2.51-.85,3.86-.85s2.56.28,3.49.85c.93.56,1.57,1.38,1.9,2.43s.32,2.29-.03,3.71-.94,2.62-1.79,3.66Z"/>
    <path class="st0" d="M284.54,190.7c-3.3.21-6.96.33-10.97.36l6.05-24.52h19.29l1.57-6.37h-27.5l-7.62,30.9-.79,3.2-.8,3.26h4.96c5.73.02,10.7-.08,14.92-.31,4.22-.23,8.52-.68,12.89-1.35l.72-6.59c-4.31.68-8.55,1.15-12.71,1.42Z"/>
    <polygon class="st0" points="321.73 175.77 313.04 175.77 318.18 154.94 309.93 154.94 296.07 211.16 304.31 211.16 311.45 182.21 320.15 182.21 321.73 175.77"/>
  </g>
</svg>